<svg width="475" height="49" viewBox="0 0 475 49" fill="none" xmlns="http://www.w3.org/2000/svg">
<g opacity="0.3" clip-path="url(#clip0_393_1017)">
<path d="M336.793 24.4852C336.793 22.8903 338.082 21.6202 339.664 21.6202C341.246 21.6202 342.505 22.9198 342.505 24.4852C342.505 26.0506 341.216 27.3502 339.664 27.3502C338.111 27.3502 336.793 26.0506 336.793 24.4852Z" fill="#9F6E53"/>
<path d="M326.891 24.4853C326.891 22.2405 328.707 20.4093 330.904 20.4093C333.101 20.4093 334.946 22.211 334.946 24.4853C334.946 26.7595 333.16 28.5612 330.904 28.5612C328.648 28.5612 326.891 26.73 326.891 24.4853Z" fill="#9F6E53"/>
<path d="M1.20105 23.2743H128.102C128.776 23.2743 129.303 23.8355 129.303 24.4853C129.303 25.1351 128.747 25.6962 128.102 25.6962H1.20105C0.52729 25.6962 0 25.1351 0 24.4853C0 23.8355 0.556583 23.2743 1.20105 23.2743Z" fill="#9F6E53"/>
<path d="M346.869 23.2743H473.77C474.444 23.2743 474.971 23.8355 474.971 24.4853C474.971 25.1351 474.414 25.6962 473.77 25.6962H346.869C346.195 25.6962 345.668 25.1351 345.668 24.4853C345.668 23.8355 346.225 23.2743 346.869 23.2743Z" fill="#9F6E53"/>
<path d="M132.496 24.4852C132.496 22.8903 133.785 21.6202 135.338 21.6202C136.89 21.6202 138.179 22.9198 138.179 24.4852C138.179 26.0506 136.89 27.3502 135.338 27.3502C133.785 27.3502 132.496 26.0506 132.496 24.4852Z" fill="#9F6E53"/>
<path d="M140.172 24.4853C140.172 22.2405 141.988 20.4093 144.214 20.4093C146.441 20.4093 148.257 22.211 148.257 24.4853C148.257 26.7595 146.441 28.5612 144.214 28.5612C141.988 28.5612 140.172 26.73 140.172 24.4853Z" fill="#9F6E53"/>
<path d="M234.498 5.58228C232.682 8.74262 230.602 11.9916 228.58 15.4473C225.153 17.4852 221.931 19.5823 218.796 21.4135C216.951 22.5359 215.105 23.5696 213.26 24.4852C215.105 25.4008 216.951 26.4346 218.796 27.557C221.931 29.3882 225.153 31.4852 228.58 33.5232C230.602 36.9494 232.682 40.1983 234.498 43.3882C235.611 45.2489 236.636 47.1097 237.544 48.9705C238.452 47.1097 239.478 45.2489 240.591 43.3882C242.407 40.2278 244.487 36.9789 246.508 33.5232C249.906 31.4852 253.129 29.3882 256.292 27.557C258.138 26.4346 259.983 25.4008 261.829 24.4852C259.983 23.5696 258.138 22.5359 256.292 21.4135C253.129 19.5823 249.936 17.4852 246.508 15.4473C244.487 11.9916 242.407 8.74262 240.591 5.58228C239.478 3.72152 238.452 1.83122 237.544 0C236.636 1.86076 235.611 3.72152 234.498 5.58228ZM251.898 24.4852C248.823 26.1392 245.747 27.9114 242.642 29.5949C240.972 32.7257 239.214 35.827 237.574 38.9283C235.933 35.827 234.176 32.7257 232.506 29.5949C229.401 27.9114 226.325 26.1392 223.249 24.4852C226.325 22.8312 229.401 21.0591 232.506 19.3755C234.176 16.2152 235.933 13.1435 237.574 10.0422C239.214 13.1435 240.972 16.2447 242.642 19.3755C245.747 21.0591 248.823 22.8312 251.898 24.4852Z" fill="#9F6E53"/>
<path d="M153.911 24.4853C152.768 23.3924 151.977 22.0928 151.684 20.7933C151.157 18.6962 151.538 16.8355 152.124 15.5063C153.5 12.789 155.405 12.6414 155.287 12.5823C155.375 12.5823 153.618 13.2616 152.944 15.8312C152.651 17.0717 152.651 18.6962 153.354 20.2321C154.028 21.7384 155.492 22.9789 157.426 23.5401C159.33 24.1013 161.673 23.9831 163.812 23.1561C165.98 22.2996 168.089 20.7637 170.11 18.8144C172.161 16.8945 174.153 14.5317 176.584 12.2279C178.986 9.9536 182.003 7.62027 185.812 6.55698C189.532 5.49369 193.662 5.81858 196.767 8.06331C199.726 10.308 201.249 13.6161 201.044 16.865C200.956 18.4895 200.312 20.0253 199.433 21.1477C198.554 22.2701 197.441 23.0675 196.387 23.5401C194.219 24.5148 192.022 24.4557 190.381 23.8945C187.071 22.654 185.929 20.3798 185.343 19.1097C184.816 17.7511 184.845 17.1013 184.845 17.1013C184.845 17.1013 185.196 17.692 186.105 18.6371C186.983 19.5232 188.653 20.9114 191.026 21.1477C192.139 21.2363 193.487 20.9409 194.6 20.1435C195.713 19.346 196.445 18.135 196.357 16.7469C196.299 15.3587 195.303 13.557 193.75 12.5823C192.286 11.6372 189.883 11.3418 187.364 12.0802C182.238 13.4684 178.166 18.5485 173.245 22.5063C172.307 23.2447 171.34 23.9536 170.315 24.5739C171.34 25.1941 172.307 25.903 173.245 26.6414C178.137 30.5992 182.238 35.6793 187.364 37.0675C189.883 37.8059 192.286 37.5106 193.75 36.5654C195.303 35.5907 196.299 33.789 196.357 32.3713C196.475 30.9831 195.742 29.7722 194.6 28.9747C193.487 28.1772 192.168 27.8819 191.026 27.9705C188.653 28.1772 186.983 29.5654 186.105 30.481C185.196 31.4262 184.845 32.0169 184.845 32.0169C184.845 32.0169 184.845 31.3376 185.343 30.0085C185.899 28.7384 187.071 26.4642 190.381 25.2236C192.051 24.6625 194.219 24.6034 196.387 25.5781C197.471 26.0507 198.554 26.8481 199.433 27.9705C200.312 29.1224 200.956 30.6287 201.044 32.2532C201.249 35.5021 199.726 38.8101 196.767 41.0549C193.662 43.2996 189.503 43.6245 185.812 42.5612C182.033 41.4979 178.986 39.1646 176.584 36.8903C174.153 34.5865 172.161 32.2236 170.11 30.3038C168.089 28.3544 165.98 26.8186 163.812 25.962C161.673 25.135 159.359 25.0169 157.426 25.5781C155.492 26.1097 153.998 27.3798 153.354 28.8861C152.651 30.422 152.651 32.0464 152.944 33.2574C153.618 35.7975 155.375 36.4768 155.287 36.5063C155.405 36.4473 153.5 36.2701 152.124 33.5823C151.538 32.2532 151.157 30.422 151.684 28.2954C152.006 26.9958 152.797 25.6667 153.911 24.6034" fill="#9F6E53"/>
<path d="M321.208 24.4852C322.351 25.5485 323.112 26.8776 323.434 28.1772C323.962 30.2743 323.61 32.135 322.995 33.4641C321.648 36.1814 319.714 36.3291 319.831 36.3882C319.714 36.3882 321.501 35.7089 322.146 33.1392C322.438 31.9283 322.438 30.3038 321.735 28.7679C321.062 27.2616 319.597 25.9916 317.664 25.4599C315.759 24.8987 313.416 25.0169 311.278 25.8439C309.11 26.7004 307.001 28.2363 304.979 30.1857C302.958 32.1055 300.966 34.4684 298.505 36.7721C296.103 39.0464 293.057 41.3797 289.278 42.443C285.557 43.5063 281.427 43.1814 278.322 40.9367C275.334 38.692 273.811 35.384 274.045 32.135C274.133 30.5105 274.777 29.0042 275.656 27.8523C276.535 26.73 277.648 25.9325 278.732 25.4599C280.9 24.4852 283.067 24.5443 284.737 25.1055C288.047 26.346 289.19 28.6203 289.776 29.8903C290.303 31.2489 290.274 31.8987 290.274 31.8987C290.274 31.8987 289.952 31.308 289.014 30.3629C288.106 29.4473 286.466 28.0591 284.093 27.8523C282.95 27.7637 281.632 28.0591 280.519 28.8565C279.406 29.654 278.673 30.865 278.761 32.2532C278.82 33.6413 279.816 35.443 281.339 36.4473C282.804 37.3924 285.206 37.6878 287.725 36.9494C292.852 35.5612 296.924 30.481 301.845 26.5232C302.782 25.7848 303.749 25.0759 304.774 24.4557C303.749 23.8354 302.782 23.1266 301.845 22.3882C296.953 18.4304 292.852 13.3502 287.725 11.962C285.206 11.2532 282.804 11.519 281.339 12.4641C279.787 13.4388 278.791 15.2405 278.761 16.6287C278.644 18.0169 279.376 19.2278 280.519 20.0253C281.632 20.8228 282.95 21.1181 284.093 21.0295C286.466 20.8228 288.106 19.4346 289.014 18.519C289.922 17.5738 290.274 16.9831 290.274 16.9831C290.274 16.9831 290.274 17.6329 289.776 18.9916C289.219 20.2616 288.047 22.5359 284.737 23.7764C283.067 24.3376 280.9 24.3966 278.732 23.4219C277.648 22.9494 276.564 22.1519 275.656 21.0295C274.777 19.9072 274.162 18.3713 274.045 16.7468C273.811 13.4979 275.334 10.1899 278.322 7.94515C281.427 5.70042 285.557 5.37553 289.278 6.43882C293.057 7.50211 296.103 9.83544 298.505 12.1097C300.937 14.4135 302.929 16.7764 304.979 18.6962C307.001 20.6456 309.11 22.1814 311.278 23.038C313.416 23.865 315.759 23.9831 317.664 23.4219C319.597 22.8903 321.091 21.6203 321.735 20.1139C322.438 18.5781 322.438 16.9536 322.146 15.7131C321.472 13.173 319.714 12.4937 319.831 12.4641C319.714 12.5232 321.618 12.7004 322.995 15.3882C323.61 16.7173 323.991 18.5485 323.434 20.6751C323.142 21.9747 322.351 23.2743 321.208 24.3671" fill="#9F6E53"/>
<path d="M201.57 24.4853C202.859 23.7764 204.119 22.8608 205.173 21.8566C207.986 19.3165 209.919 16.3038 211.091 15.211C213.405 13.0254 217.272 11.1941 218.707 12.5528C220.113 13.9114 218.561 17.9283 215.924 20.4389C214.84 21.4431 211.999 23.2152 208.572 24.4853C211.999 25.7553 214.811 27.5275 215.924 28.5612C218.561 31.0422 220.113 35.0591 218.707 36.4178C217.272 37.806 213.434 35.9452 211.091 33.7891C209.919 32.6962 207.956 29.7131 205.173 27.1435C204.09 26.1393 202.859 25.2237 201.57 24.4853Z" fill="#9F6E53"/>
<path d="M273.575 24.5148C272.286 25.2237 271.026 26.1393 269.972 27.1435C267.159 29.6836 265.226 32.6962 264.025 33.7891C261.681 35.9747 257.844 37.806 256.409 36.4178C255.003 35.0591 256.555 31.0422 259.192 28.5612C260.305 27.5275 263.117 25.7849 266.544 24.4853C263.117 23.2152 260.305 21.4431 259.192 20.4389C256.555 17.9579 255.003 13.9114 256.409 12.5528C257.844 11.1941 261.681 13.0254 264.025 15.211C265.226 16.3038 267.159 19.287 269.972 21.8566C271.026 22.8608 272.286 23.7764 273.575 24.5148Z" fill="#9F6E53"/>
<path d="M247.65 14.3249C246.537 12.1392 244.955 8.38818 243.93 6.97046C245.072 8.50632 247.709 10.8987 249.378 12.5823C251.048 14.2658 253.421 16.924 254.944 18.0759C253.538 17.0422 249.788 15.4473 247.621 14.3249" fill="#9F6E53"/>
<path d="M227.466 14.3249C225.298 15.4473 221.578 17.0422 220.172 18.0759C221.724 16.924 224.068 14.2658 225.738 12.5823C227.407 10.8987 230.044 8.50632 231.186 6.97046C230.161 8.38818 228.579 12.1392 227.466 14.3249Z" fill="#9F6E53"/>
<path d="M227.466 34.6751C228.55 36.8608 230.161 40.6118 231.186 42.0591C230.044 40.4937 227.407 38.1308 225.738 36.4473C224.068 34.7637 221.695 32.1055 220.172 30.9536C221.578 31.9874 225.298 33.5823 227.466 34.7047" fill="#9F6E53"/>
<path d="M247.65 34.6751C249.818 33.5528 253.538 31.9578 254.973 30.9241C253.421 32.076 251.077 34.7342 249.408 36.4177C247.738 38.1013 245.101 40.4937 243.959 42.0296C244.955 40.6118 246.566 36.8312 247.679 34.6456" fill="#9F6E53"/>
<path d="M268.771 36.5358C267.98 36.4767 267.628 34.4683 268.214 32.8734C268.478 32.1054 269.562 30.481 270.938 29.1814C272.315 27.8523 273.956 26.848 274.776 26.2573C273.809 26.9957 272.696 28.5611 272.051 30.1265C271.348 31.6919 271.114 33.2278 270.88 33.848C270.382 35.0885 269.562 36.5949 268.771 36.5358Z" fill="#9F6E53"/>
<path d="M206.345 12.4346C207.136 12.4936 207.517 14.5316 206.902 16.097C206.638 16.8649 205.554 18.4894 204.177 19.8185C202.801 21.1772 201.16 22.1519 200.34 22.7426C201.307 22.0042 202.449 20.4683 203.093 18.8734C203.797 17.308 204.031 15.7721 204.236 15.1519C204.734 13.9114 205.554 12.405 206.345 12.4641" fill="#9F6E53"/>
<path d="M268.771 12.4346C267.98 12.4936 267.628 14.5316 268.214 16.097C268.478 16.8649 269.562 18.4894 270.938 19.8185C272.315 21.1772 273.956 22.1519 274.776 22.7426C273.809 22.0042 272.696 20.4683 272.051 18.8734C271.348 17.308 271.114 15.7721 270.88 15.1519C270.382 13.9114 269.562 12.405 268.771 12.4641" fill="#9F6E53"/>
<path d="M206.345 36.5358C207.136 36.4767 207.517 34.4683 206.902 32.8734C206.638 32.1054 205.554 30.481 204.177 29.1814C202.801 27.8523 201.16 26.848 200.34 26.2573C201.307 26.9957 202.449 28.5611 203.093 30.1265C203.797 31.6919 204.031 33.2278 204.236 33.848C204.734 35.0885 205.554 36.5949 206.345 36.5358Z" fill="#9F6E53"/>
</g>
<defs>
<clipPath id="clip0_393_1017">
<rect width="475" height="49" fill="white"/>
</clipPath>
</defs>
</svg>
