<svg width="20" height="20" viewBox="0 0 20 20" fill="none" xmlns="http://www.w3.org/2000/svg">
<g clip-path="url(#clip0_588_141)">
<path d="M2.5 5.83268C2.5 5.39065 2.67559 4.96673 2.98816 4.65417C3.30072 4.34161 3.72464 4.16602 4.16667 4.16602H15.8333C16.2754 4.16602 16.6993 4.34161 17.0118 4.65417C17.3244 4.96673 17.5 5.39065 17.5 5.83268V14.166C17.5 14.608 17.3244 15.032 17.0118 15.3445C16.6993 15.6571 16.2754 15.8327 15.8333 15.8327H4.16667C3.72464 15.8327 3.30072 15.6571 2.98816 15.3445C2.67559 15.032 2.5 14.608 2.5 14.166V5.83268Z" stroke="url(#paint0_linear_588_141)" stroke-width="1.5" stroke-linecap="round" stroke-linejoin="round"/>
<path d="M2.5 5.83398L10 10.834L17.5 5.83398" stroke="url(#paint1_linear_588_141)" stroke-width="1.5" stroke-linecap="round" stroke-linejoin="round"/>
</g>
<defs>
<linearGradient id="paint0_linear_588_141" x1="3.21656" y1="14.6174" x2="17.5966" y2="13.326" gradientUnits="userSpaceOnUse">
<stop stop-color="#C28B5E"/>
<stop offset="0.47" stop-color="#FFE4CE"/>
<stop offset="1" stop-color="#C28B5E"/>
</linearGradient>
<linearGradient id="paint1_linear_588_141" x1="3.21656" y1="10.3132" x2="17.1028" y2="7.40338" gradientUnits="userSpaceOnUse">
<stop stop-color="#C28B5E"/>
<stop offset="0.47" stop-color="#FFE4CE"/>
<stop offset="1" stop-color="#C28B5E"/>
</linearGradient>
<clipPath id="clip0_588_141">
<rect width="20" height="20" fill="white"/>
</clipPath>
</defs>
</svg>
