<svg width="63" height="63" viewBox="0 0 63 63" fill="none" xmlns="http://www.w3.org/2000/svg">
<rect x="0.5" y="0.5" width="62" height="62" rx="31" stroke="#9F6E53"/>
<g clip-path="url(#clip0_601_756)">
<path d="M24 28C24 26.9391 24.4214 25.9217 25.1716 25.1716C25.9217 24.4214 26.9391 24 28 24H36C37.0609 24 38.0783 24.4214 38.8284 25.1716C39.5786 25.9217 40 26.9391 40 28V36C40 37.0609 39.5786 38.0783 38.8284 38.8284C38.0783 39.5786 37.0609 40 36 40H28C26.9391 40 25.9217 39.5786 25.1716 38.8284C24.4214 38.0783 24 37.0609 24 36V28Z" stroke="url(#paint0_linear_601_756)" stroke-width="1.5" stroke-linecap="round" stroke-linejoin="round"/>
<path d="M29 32C29 32.7956 29.3161 33.5587 29.8787 34.1213C30.4413 34.6839 31.2044 35 32 35C32.7956 35 33.5587 34.6839 34.1213 34.1213C34.6839 33.5587 35 32.7956 35 32C35 31.2044 34.6839 30.4413 34.1213 29.8787C33.5587 29.3161 32.7956 29 32 29C31.2044 29 30.4413 29.3161 29.8787 29.8787C29.3161 30.4413 29 31.2044 29 32Z" stroke="url(#paint1_linear_601_756)" stroke-width="1.5" stroke-linecap="round" stroke-linejoin="round"/>
<path d="M36.5 27.5V27.51" stroke="url(#paint2_linear_601_756)" stroke-width="1.5" stroke-linecap="round" stroke-linejoin="round"/>
</g>
<defs>
<linearGradient id="paint0_linear_601_756" x1="24.7643" y1="38.3333" x2="40.1516" y2="37.2586" gradientUnits="userSpaceOnUse">
<stop stop-color="#9F6E53"/>
<stop offset="0.47" stop-color="#FFE4CE"/>
<stop offset="1" stop-color="#9F6E53"/>
</linearGradient>
<linearGradient id="paint1_linear_601_756" x1="29.2866" y1="34.375" x2="35.0569" y2="33.972" gradientUnits="userSpaceOnUse">
<stop stop-color="#9F6E53"/>
<stop offset="0.47" stop-color="#FFE4CE"/>
<stop offset="1" stop-color="#9F6E53"/>
</linearGradient>
<linearGradient id="paint2_linear_601_756" x1="36.5478" y1="27.509" x2="36.5672" y2="27.3734" gradientUnits="userSpaceOnUse">
<stop stop-color="#9F6E53"/>
<stop offset="0.47" stop-color="#FFE4CE"/>
<stop offset="1" stop-color="#9F6E53"/>
</linearGradient>
<clipPath id="clip0_601_756">
<rect width="24" height="24" fill="white" transform="translate(20 20)"/>
</clipPath>
</defs>
</svg>
