<svg width="49" height="49" viewBox="0 0 49 49" fill="none" xmlns="http://www.w3.org/2000/svg">
<circle opacity="0.4" cx="24.5" cy="24.5" r="24.5" fill="white" fill-opacity="0.1"/>
<g clip-path="url(#clip0_588_170)">
<path d="M21 23.5V28.5" stroke="url(#paint0_linear_588_170)" stroke-width="1.5" stroke-linecap="round" stroke-linejoin="round"/>
<path d="M21 20.5V20.51" stroke="url(#paint1_linear_588_170)" stroke-width="1.5" stroke-linecap="round" stroke-linejoin="round"/>
<path d="M25 28.5V23.5" stroke="url(#paint2_linear_588_170)" stroke-width="1.5" stroke-linecap="round" stroke-linejoin="round"/>
<path d="M29 28.5V25.5C29 24.9696 28.7893 24.4609 28.4142 24.0858C28.0391 23.7107 27.5304 23.5 27 23.5C26.4696 23.5 25.9609 23.7107 25.5858 24.0858C25.2107 24.4609 25 24.9696 25 25.5" stroke="url(#paint3_linear_588_170)" stroke-width="1.5" stroke-linecap="round" stroke-linejoin="round"/>
<path d="M16 19.5C16 18.4391 16.4214 17.4217 17.1716 16.6716C17.9217 15.9214 18.9391 15.5 20 15.5H30C31.0609 15.5 32.0783 15.9214 32.8284 16.6716C33.5786 17.4217 34 18.4391 34 19.5V29.5C34 30.5609 33.5786 31.5783 32.8284 32.3284C32.0783 33.0786 31.0609 33.5 30 33.5H20C18.9391 33.5 17.9217 33.0786 17.1716 32.3284C16.4214 31.5783 16 30.5609 16 29.5V19.5Z" stroke="url(#paint4_linear_588_170)" stroke-width="1.5" stroke-linecap="round" stroke-linejoin="round"/>
</g>
<defs>
<linearGradient id="paint0_linear_588_170" x1="21.0478" y1="27.9792" x2="22.014" y2="27.9657" gradientUnits="userSpaceOnUse">
<stop stop-color="#9F6E53"/>
<stop offset="0.47" stop-color="#FFE4CE"/>
<stop offset="1" stop-color="#9F6E53"/>
</linearGradient>
<linearGradient id="paint1_linear_588_170" x1="21.0478" y1="20.509" x2="21.0672" y2="20.3734" gradientUnits="userSpaceOnUse">
<stop stop-color="#9F6E53"/>
<stop offset="0.47" stop-color="#FFE4CE"/>
<stop offset="1" stop-color="#9F6E53"/>
</linearGradient>
<linearGradient id="paint2_linear_588_170" x1="25.0478" y1="27.9792" x2="26.014" y2="27.9657" gradientUnits="userSpaceOnUse">
<stop stop-color="#9F6E53"/>
<stop offset="0.47" stop-color="#FFE4CE"/>
<stop offset="1" stop-color="#9F6E53"/>
</linearGradient>
<linearGradient id="paint3_linear_588_170" x1="25.1911" y1="27.9792" x2="29.0446" y2="27.7638" gradientUnits="userSpaceOnUse">
<stop stop-color="#9F6E53"/>
<stop offset="0.47" stop-color="#FFE4CE"/>
<stop offset="1" stop-color="#9F6E53"/>
</linearGradient>
<linearGradient id="paint4_linear_588_170" x1="16.8599" y1="31.625" x2="34.1706" y2="30.4159" gradientUnits="userSpaceOnUse">
<stop stop-color="#9F6E53"/>
<stop offset="0.47" stop-color="#FFE4CE"/>
<stop offset="1" stop-color="#9F6E53"/>
</linearGradient>
<clipPath id="clip0_588_170">
<rect width="24" height="24" fill="white" transform="translate(13 12.5)"/>
</clipPath>
</defs>
</svg>
