<svg width="78" height="78" viewBox="0 0 78 78" fill="none" xmlns="http://www.w3.org/2000/svg">
<path d="M39 73.125C44.878 73.1249 50.6563 71.6065 55.7749 68.717C60.8936 65.8275 65.1791 61.6648 68.2163 56.6323C71.2534 51.5998 72.9391 45.8681 73.1101 39.9926C73.281 34.1172 71.9315 28.2971 69.1921 23.0965C69.0371 22.8174 68.7788 22.6103 68.4726 22.5196C68.1664 22.429 67.837 22.4622 67.555 22.6119C67.273 22.7617 67.0611 23.0161 66.9647 23.3205C66.8684 23.6249 66.8954 23.955 67.0398 24.2397C69.439 28.7896 70.6912 33.8564 70.6875 39C68.9508 81.031 9.04926 81.031 7.31254 39C7.02004 15.5001 33.15 -0.251056 53.7615 10.9614C53.9029 11.0364 54.0577 11.0828 54.2171 11.098C54.3764 11.1131 54.5372 11.0968 54.6902 11.0498C54.8432 11.0028 54.9854 10.9262 55.1088 10.8243C55.2322 10.7223 55.3343 10.5971 55.4093 10.4557C55.4843 10.3143 55.5307 10.1595 55.5458 10.0001C55.561 9.8408 55.5446 9.68004 55.4977 9.52704C55.4507 9.37403 55.374 9.23177 55.2721 9.10838C55.1702 8.98499 55.0449 8.88289 54.9035 8.80791C50.0016 6.22181 44.5423 4.87174 39 4.87501C-6.26434 6.74579 -6.26434 71.2554 39 73.125Z" fill="url(#paint0_linear_426_551)"/>
<path d="M39.0006 29.25C40.0557 29.2493 41.1035 29.4243 42.1011 29.768C42.4067 29.8732 42.7416 29.8527 43.0321 29.711C43.3226 29.5692 43.5449 29.318 43.6501 29.0123C44.1863 26.8588 40.3899 26.9441 39.0006 26.8125C22.8338 27.4804 22.8351 50.5196 39.0006 51.1875C42.2318 51.184 45.3297 49.8988 47.6145 47.6139C49.8993 45.3291 51.1845 42.2312 51.1881 39C51.0637 37.5863 51.1454 33.8288 48.9992 34.3627C48.6939 34.4679 48.4428 34.69 48.3011 34.9802C48.1594 35.2704 48.1387 35.605 48.2436 35.9105C48.583 36.905 48.7544 37.9491 48.7506 39C48.2618 51.9151 29.7381 51.9151 29.2506 39C29.2538 36.4151 30.2821 33.9371 32.1098 32.1093C33.9376 30.2815 36.4157 29.2532 39.0006 29.25Z" fill="url(#paint1_linear_426_551)"/>
<path d="M50.6696 20.3958C50.7473 20.2558 50.7966 20.1018 50.8148 19.9427C50.8329 19.7836 50.8196 19.6225 50.7754 19.4685C50.7313 19.3146 50.6572 19.1709 50.5575 19.0456C50.4578 18.9203 50.3344 18.8159 50.1943 18.7383C46.7679 16.8419 42.9163 15.846 39.0001 15.8438C8.28513 17.1137 8.28513 60.8875 39.0001 62.1562C43.0282 62.1586 46.9872 61.1096 50.4857 59.1128C53.9841 57.1161 56.9008 54.2408 58.9473 50.7712C60.9938 47.3017 62.0993 43.3581 62.1545 39.3303C62.2096 35.3025 61.2125 31.3301 59.2618 27.8058C59.105 27.523 58.8423 27.314 58.5315 27.2248C58.2206 27.1357 57.8871 27.1737 57.6043 27.3305C57.3215 27.4872 57.1125 27.7499 57.0233 28.0608C56.9342 28.3716 56.9722 28.7051 57.129 28.988C64.8558 42.3845 54.4782 59.9869 39.0001 59.7188C33.507 59.7126 28.2407 57.5278 24.3565 53.6436C20.4723 49.7594 18.2874 44.4931 18.2813 39C18.0156 23.5231 35.6132 13.1442 49.0121 20.8711C49.1521 20.9491 49.306 20.9987 49.4652 21.017C49.6244 21.0354 49.7856 21.0221 49.9396 20.9779C50.0937 20.9337 50.2374 20.8596 50.3627 20.7597C50.488 20.6598 50.5923 20.5361 50.6696 20.3958Z" fill="url(#paint2_linear_426_551)"/>
<path d="M53.0445 16.9382L53.4918 22.7845L38.138 38.1383C37.916 38.3682 37.7932 38.6761 37.7959 38.9956C37.7987 39.3152 37.9269 39.6209 38.1529 39.8468C38.3788 40.0728 38.6845 40.201 39.0041 40.2037C39.3236 40.2065 39.6315 40.0837 39.8613 39.8617L55.2151 24.5079L61.0615 24.9551C61.2366 24.9685 61.4126 24.9438 61.5773 24.8828C61.742 24.8218 61.8916 24.7259 62.0158 24.6017L70.8858 15.7316C71.0471 15.5655 71.158 15.3571 71.2059 15.1305C71.2537 14.904 71.2365 14.6685 71.1562 14.4514C71.0759 14.2342 70.9358 14.0442 70.7521 13.9032C70.5684 13.7623 70.3486 13.6762 70.118 13.6549L64.7555 13.2442L64.3448 7.88166C64.3235 7.65111 64.2374 7.43128 64.0965 7.24758C63.9555 7.06387 63.7655 6.92378 63.5483 6.84349C63.3311 6.7632 63.0957 6.74598 62.8691 6.79382C62.6426 6.84166 62.4342 6.95261 62.268 7.11385L53.398 15.9839C53.2737 16.108 53.1777 16.2576 53.1167 16.4223C53.0557 16.587 53.0311 16.763 53.0445 16.9382ZM62.1169 10.7116C62.6044 16.3873 61.644 15.3879 67.2881 15.8828L60.6886 22.4823L55.8855 22.1142L55.5174 17.3124L62.1169 10.7116Z" fill="url(#paint3_linear_426_551)"/>
<defs>
<linearGradient id="paint0_linear_426_551" x1="8.30364" y1="66.0156" x2="73.7713" y2="61.4547" gradientUnits="userSpaceOnUse">
<stop stop-color="#B18C49"/>
<stop offset="0.47" stop-color="#FFE4CE"/>
<stop offset="1" stop-color="#B18C49"/>
</linearGradient>
<linearGradient id="paint1_linear_426_551" x1="28.0374" y1="48.6484" x2="51.4191" y2="47.0195" gradientUnits="userSpaceOnUse">
<stop stop-color="#B18C49"/>
<stop offset="0.47" stop-color="#FFE4CE"/>
<stop offset="1" stop-color="#B18C49"/>
</linearGradient>
<linearGradient id="paint2_linear_426_551" x1="18.1705" y1="57.332" x2="62.5956" y2="54.2371" gradientUnits="userSpaceOnUse">
<stop stop-color="#B18C49"/>
<stop offset="0.47" stop-color="#FFE4CE"/>
<stop offset="1" stop-color="#B18C49"/>
</linearGradient>
<linearGradient id="paint3_linear_426_551" x1="39.3932" y1="36.7208" x2="71.5492" y2="34.4748" gradientUnits="userSpaceOnUse">
<stop stop-color="#B18C49"/>
<stop offset="0.47" stop-color="#FFE4CE"/>
<stop offset="1" stop-color="#B18C49"/>
</linearGradient>
</defs>
</svg>
