<svg width="63" height="63" viewBox="0 0 63 63" fill="none" xmlns="http://www.w3.org/2000/svg">
<path d="M16 1H47C55.2843 1 62 7.71573 62 16V47C62 55.2843 55.2843 62 47 62H16C7.71573 62 1 55.2843 1 47V16C1 7.71573 7.71573 1 16 1Z" fill="white" fill-opacity="0.5" stroke="url(#paint0_linear_535_763)" stroke-width="2"/>
<path d="M29 22C29.1793 21.9999 29.3553 22.0481 29.5096 22.1394C29.6639 22.2307 29.7908 22.3618 29.877 22.519L29.928 22.629L31.928 27.629C32.0086 27.8302 32.0216 28.052 31.9651 28.2612C31.9087 28.4705 31.7858 28.6557 31.615 28.789L31.515 28.857L29.841 29.861L29.904 29.964C30.7008 31.229 31.771 32.2992 33.036 33.096L33.138 33.158L34.143 31.486C34.2544 31.3001 34.4231 31.1554 34.6239 31.0737C34.8246 30.992 35.0464 30.9777 35.256 31.033L35.371 31.072L40.371 33.072C40.5375 33.1384 40.6831 33.2484 40.7925 33.3903C40.9019 33.5323 40.9712 33.7011 40.993 33.879L41 34V38C41 39.657 39.657 41 37.94 40.998C29.361 40.477 22.522 33.638 22 25C22 24.2348 22.2923 23.4985 22.8173 22.9417C23.3422 22.385 24.0601 22.0499 24.824 22.005L25 22H29Z" fill="#9F6E53"/>
<defs>
<linearGradient id="paint0_linear_535_763" x1="3.00955" y1="56.4375" x2="63.5971" y2="52.2056" gradientUnits="userSpaceOnUse">
<stop stop-color="#B18C49"/>
<stop offset="0.47" stop-color="#FFE4CE"/>
<stop offset="1" stop-color="#B18C49"/>
</linearGradient>
</defs>
</svg>
