<svg width="78" height="78" viewBox="0 0 78 78" fill="none" xmlns="http://www.w3.org/2000/svg">
<mask id="mask0_532_562" style="mask-type:luminance" maskUnits="userSpaceOnUse" x="0" y="0" width="78" height="78">
<path d="M78 0H0V78H78V0Z" fill="white"/>
</mask>
<g mask="url(#mask0_532_562)">
<path d="M30.6759 30.0986C30.4322 29.9416 30.1488 29.8594 29.8594 29.8594C29.0184 29.8594 28.3359 30.5419 28.3359 31.3828C28.3359 31.782 28.4898 32.1461 28.7412 32.4172C29.0291 32.7295 29.4343 32.9078 29.8594 32.9062C30.7003 32.9062 31.3828 32.2238 31.3828 31.3828C31.3828 30.842 31.101 30.3682 30.6759 30.0986Z" fill="url(#paint0_linear_532_562)"/>
<path d="M39 13.1016C38.1591 13.1016 37.4766 12.4191 37.4766 11.5781V1.52344C37.4766 0.6825 38.1591 0 39 0C39.8409 0 40.5234 0.6825 40.5234 1.52344V11.5781C40.5234 12.4191 39.8409 13.1016 39 13.1016Z" fill="url(#paint1_linear_532_562)"/>
<path d="M39 78C38.1591 78 37.4766 77.3175 37.4766 76.4766V66.4219C37.4766 65.5809 38.1591 64.8984 39 64.8984C39.8409 64.8984 40.5234 65.5809 40.5234 66.4219V76.4766C40.5234 77.3175 39.8409 78 39 78Z" fill="url(#paint2_linear_532_562)"/>
<path d="M16.563 21.1331C16.173 21.1331 15.783 20.9838 15.4859 20.6867L9.02194 14.2228C8.42628 13.6271 8.42628 12.6628 9.02194 12.0686C9.61761 11.4745 10.5819 11.4729 11.1761 12.0686L17.64 18.5326C18.2357 19.1282 18.2357 20.0926 17.64 20.6867C17.343 20.9838 16.953 21.1331 16.563 21.1331Z" fill="url(#paint3_linear_532_562)"/>
<path d="M67.9008 67.9012C67.5108 67.9012 67.1209 67.7519 66.8238 67.4548L60.3598 60.9909C59.7642 60.3952 59.7642 59.4309 60.3598 58.8367C60.9555 58.2426 61.9198 58.2426 62.514 58.8367L68.9779 65.3007C69.5736 65.8963 69.5736 66.8607 68.9779 67.4548C68.6809 67.7519 68.2908 67.9012 67.9008 67.9012Z" fill="url(#paint4_linear_532_562)"/>
<path d="M61.4369 21.1332C61.0469 21.1332 60.6569 20.9839 60.3598 20.6868C59.7642 20.0911 59.7642 19.1268 60.3598 18.5326L66.8238 12.0687C67.4194 11.473 68.3838 11.473 68.9779 12.0687C69.5736 12.6644 69.5736 13.6287 68.9779 14.2228L62.514 20.6868C62.2169 20.9839 61.8269 21.1332 61.4369 21.1332Z" fill="url(#paint5_linear_532_562)"/>
<path d="M10.0994 67.9012C9.70942 67.9012 9.31942 67.7519 9.02235 67.4548C8.42668 66.8591 8.42821 65.8948 9.02235 65.3007L15.4863 58.8367C16.0804 58.2426 17.0463 58.2426 17.6404 58.8367C18.2361 59.4324 18.2346 60.3967 17.6404 60.9909L11.1765 67.4548C10.8794 67.7519 10.4894 67.9012 10.0994 67.9012Z" fill="url(#paint6_linear_532_562)"/>
<path d="M38.9998 60.3281C30.3787 60.3281 21.625 56.78 13.6864 50.0663C7.73737 45.0359 4.36144 40.0603 4.22128 39.8516C3.87546 39.3367 3.87546 38.6648 4.22128 38.1515C4.36144 37.9427 7.7389 32.9672 13.6864 27.9368C21.625 21.223 30.3787 17.6749 38.9998 17.6749C47.621 17.6749 56.3746 21.223 64.3133 27.9368C70.2623 32.9672 73.6382 37.9427 73.7784 38.1515C74.1242 38.6664 74.1242 39.3382 73.7784 39.8516C73.6382 40.0603 70.2608 45.0374 64.3133 50.0663C56.3746 56.78 47.621 60.3281 38.9998 60.3281ZM7.36413 39C8.5646 40.5996 11.4774 44.2193 15.7187 47.7933C19.0047 50.5644 22.437 52.7673 25.9196 54.3425C30.2279 56.2925 34.6291 57.2813 39.0014 57.2813C43.3736 57.2813 47.7748 56.2925 52.0831 54.3425C55.5657 52.7673 58.9965 50.5629 62.284 47.7933C66.5253 44.2193 69.4366 40.5996 70.6386 39C69.4381 37.4004 66.5253 33.7807 62.284 30.2067C58.998 27.4356 55.5657 25.2327 52.0831 23.6575C47.7748 21.7075 43.3736 20.7188 39.0014 20.7188C34.6291 20.7188 30.2279 21.7075 25.9196 23.6575C22.437 25.2327 19.0062 27.4371 15.7187 30.2067C11.4774 33.7807 8.56612 37.4004 7.36413 39Z" fill="url(#paint7_linear_532_562)"/>
<path d="M39.0086 52.711H38.9995C31.4402 52.711 25.29 46.5609 25.29 39.0001C25.29 38.8828 25.2916 38.7654 25.2946 38.6497C25.2961 38.5522 25.2992 38.4562 25.3053 38.3587C25.3098 38.246 25.3159 38.1332 25.3236 38.0205C25.3236 38.0129 25.3236 38.0068 25.3251 37.9992L25.3296 37.9367C25.3342 37.8788 25.3388 37.8224 25.3449 37.7645L25.3479 37.7249C25.3571 37.6244 25.3662 37.5299 25.3784 37.437C25.3784 37.4294 25.3799 37.4218 25.3814 37.4142C25.3936 37.3106 25.4058 37.2054 25.4211 37.1019C25.4317 37.0272 25.4424 36.951 25.4546 36.8764C25.4683 36.7804 25.4835 36.686 25.5003 36.5915C25.5048 36.558 25.5109 36.5245 25.5186 36.491C25.677 35.6652 26.4753 35.1183 27.301 35.2768C28.1267 35.4337 28.6705 36.2259 28.5136 37.0516C28.5106 37.0744 28.506 37.0973 28.503 37.1201C28.4908 37.1841 28.4801 37.2451 28.471 37.3106C28.4679 37.3319 28.4649 37.3547 28.4603 37.3761C28.4527 37.4233 28.4466 37.469 28.4405 37.5162C28.4405 37.5238 28.439 37.533 28.4375 37.5406C28.4283 37.6061 28.4192 37.6716 28.4116 37.7371C28.4116 37.7524 28.4085 37.7661 28.407 37.7813C28.3979 37.8483 28.3918 37.9184 28.3857 37.987L28.3826 38.0327C28.3826 38.0433 28.3811 38.0555 28.3796 38.0662C28.3765 38.0997 28.3735 38.1332 28.372 38.1652L28.3659 38.2353C28.3598 38.3206 28.3552 38.4059 28.3521 38.4928C28.3521 38.5004 28.3521 38.5065 28.3521 38.5141C28.3491 38.5811 28.3461 38.6466 28.3445 38.7121V38.7289C28.3415 38.8172 28.34 38.9071 28.34 38.9985C28.34 44.879 33.1236 49.6626 39.004 49.6626H39.0116C39.7292 49.6626 40.4498 49.5895 41.1536 49.4447C41.4948 49.3762 41.8376 49.2878 42.1758 49.1827C42.5049 49.0806 42.8339 48.9588 43.1554 48.8247C43.3093 48.7592 43.454 48.6937 43.5957 48.6251C44.4838 48.2016 45.3034 47.6593 46.0393 47.0118C46.216 46.8579 46.3851 46.6995 46.5466 46.5365C46.7279 46.3552 46.903 46.1663 47.0691 45.9728C47.2915 45.7184 47.4972 45.4564 47.6891 45.1867C47.7029 45.1685 47.715 45.1502 47.7288 45.1319C47.8171 45.0054 47.9039 44.8775 47.9862 44.748C48.1264 44.5286 48.2589 44.3062 48.3808 44.0822C49.2232 42.5314 49.6681 40.7749 49.6681 38.9985C49.6681 33.1181 44.8845 28.3345 39.004 28.3345C38.9141 28.3345 38.8227 28.3345 38.7329 28.339C38.7268 28.339 38.7207 28.339 38.7161 28.339C38.6475 28.339 38.579 28.3421 38.512 28.3467C38.5089 28.3467 38.4982 28.3467 38.4952 28.3467C38.4434 28.3497 38.3901 28.3512 38.3383 28.3543C38.3215 28.3543 38.3032 28.3558 38.2865 28.3573C38.2758 28.3573 38.2652 28.3573 38.2545 28.3588C38.2255 28.3619 38.1966 28.3634 38.1677 28.3649L38.1265 28.368C38.1174 28.368 38.1082 28.3695 38.0991 28.3695C38.0564 28.3726 38.0138 28.3756 37.9711 28.3817C37.9635 28.3817 37.9559 28.3832 37.9483 28.3847L37.8569 28.3939C37.8005 28.4 37.7502 28.4061 37.7015 28.4106C37.6619 28.4152 37.6177 28.4213 37.5735 28.4274C37.5568 28.4304 37.5385 28.432 37.5202 28.435C37.5065 28.4365 37.4928 28.4396 37.4836 28.4411C37.4364 28.4472 37.3892 28.4533 37.3435 28.4609C37.3176 28.4655 37.2917 28.4701 37.2643 28.4731C37.2445 28.4777 37.2231 28.4807 37.2033 28.4838C37.147 28.4929 37.0921 28.5036 37.0357 28.5127C36.9702 28.5249 36.9154 28.5356 36.859 28.5477C36.8468 28.5508 36.8347 28.5523 36.8225 28.5554C36.7493 28.5691 36.6793 28.5858 36.6061 28.6026L36.5863 28.6072C36.501 28.627 36.4142 28.6468 36.3289 28.6696C36.2466 28.691 36.172 28.7108 36.0973 28.7336C36.0897 28.7367 36.0805 28.7382 36.0729 28.7412C35.9328 28.7793 35.7911 28.8235 35.6525 28.8707C35.6448 28.8738 35.6388 28.8753 35.6311 28.8783C35.5915 28.8905 35.5519 28.9042 35.5138 28.9179C35.5093 28.9195 35.4986 28.9225 35.494 28.924C35.4453 28.9408 35.3965 28.9576 35.3493 28.9758C35.3432 28.9789 35.3371 28.9804 35.3295 28.9835C35.2868 28.9987 35.2442 29.0139 35.2015 29.0307C34.417 29.3354 33.5349 28.9469 33.2287 28.1638C32.924 27.3793 33.3125 26.4972 34.0955 26.191C34.1595 26.1666 34.2235 26.1422 34.2875 26.1194C34.353 26.095 34.42 26.0706 34.4855 26.0478C34.5449 26.0265 34.612 26.0036 34.682 25.9808C34.8694 25.9183 35.0583 25.8589 35.2472 25.8071C35.3539 25.7751 35.4636 25.7461 35.5748 25.7172C35.6845 25.6883 35.8002 25.6608 35.9145 25.6349L35.9343 25.6304C36.0318 25.609 36.1263 25.5862 36.2238 25.5679C36.3152 25.5481 36.405 25.5298 36.498 25.5131C36.5574 25.5024 36.6244 25.4902 36.6914 25.4795C36.7432 25.4689 36.795 25.4613 36.8484 25.4536C36.9169 25.4415 36.987 25.4323 37.0555 25.4232C37.0814 25.4186 37.1073 25.4156 37.1317 25.4125C37.1927 25.4034 37.2551 25.3958 37.3176 25.3866C37.3222 25.3866 37.3359 25.3851 37.3389 25.3836C37.412 25.3744 37.4852 25.3668 37.5568 25.3592L37.6299 25.3516C37.7106 25.3424 37.7914 25.3348 37.8721 25.3287C37.9087 25.3257 37.9452 25.3226 37.9818 25.3211C38.0366 25.3165 38.0945 25.312 38.1494 25.3104C38.2164 25.3059 38.285 25.3028 38.3505 25.2998C38.4464 25.2952 38.547 25.2906 38.6491 25.2891C38.7648 25.2861 38.8837 25.2845 39.001 25.2845C46.5618 25.2845 52.7119 31.4347 52.7119 38.9955C52.7119 41.2791 52.1391 43.5384 51.0544 45.5326C50.8975 45.8205 50.7269 46.1099 50.5471 46.3887C50.4435 46.5502 50.3338 46.7147 50.212 46.8884L50.1784 46.9356V46.9387C49.924 47.2952 49.6513 47.641 49.3664 47.967C49.1577 48.2092 48.9307 48.453 48.6992 48.6861C48.4905 48.8963 48.2696 49.1035 48.0441 49.3C47.1026 50.1303 46.0454 50.828 44.9089 51.3704C44.7276 51.4572 44.5402 51.5425 44.3376 51.6278C43.9247 51.803 43.4997 51.9584 43.0762 52.0894C42.6389 52.225 42.1956 52.3393 41.7569 52.4276C40.855 52.612 39.9288 52.7064 39.0071 52.7064L39.0086 52.711ZM27.01 36.7987L28.5075 37.0775C28.5075 37.0775 28.5106 37.0622 28.5106 37.0546L27.0085 36.7987H27.01Z" fill="url(#paint8_linear_532_562)"/>
<path d="M39 45.0938C35.6393 45.0938 32.9062 42.3607 32.9062 39C32.9062 35.6393 35.6393 32.9062 39 32.9062C42.3607 32.9062 45.0938 35.6393 45.0938 39C45.0938 42.3607 42.3607 45.0938 39 45.0938ZM39 35.9531C37.3196 35.9531 35.9531 37.3196 35.9531 39C35.9531 40.6804 37.3196 42.0469 39 42.0469C40.6804 42.0469 42.0469 40.6804 42.0469 39C42.0469 37.3196 40.6804 35.9531 39 35.9531Z" fill="url(#paint9_linear_532_562)"/>
</g>
<defs>
<linearGradient id="paint0_linear_532_562" x1="28.4815" y1="32.5889" x2="31.4117" y2="32.3842" gradientUnits="userSpaceOnUse">
<stop stop-color="#B18C49"/>
<stop offset="0.47" stop-color="#FFE4CE"/>
<stop offset="1" stop-color="#B18C49"/>
</linearGradient>
<linearGradient id="paint1_linear_532_562" x1="37.6221" y1="11.7368" x2="40.5658" y2="11.689" gradientUnits="userSpaceOnUse">
<stop stop-color="#B18C49"/>
<stop offset="0.47" stop-color="#FFE4CE"/>
<stop offset="1" stop-color="#B18C49"/>
</linearGradient>
<linearGradient id="paint2_linear_532_562" x1="37.6221" y1="76.6353" x2="40.5658" y2="76.5874" gradientUnits="userSpaceOnUse">
<stop stop-color="#B18C49"/>
<stop offset="0.47" stop-color="#FFE4CE"/>
<stop offset="1" stop-color="#B18C49"/>
</linearGradient>
<linearGradient id="paint3_linear_532_562" x1="9.02957" y1="20.1424" x2="18.1769" y2="19.5034" gradientUnits="userSpaceOnUse">
<stop stop-color="#B18C49"/>
<stop offset="0.47" stop-color="#FFE4CE"/>
<stop offset="1" stop-color="#B18C49"/>
</linearGradient>
<linearGradient id="paint4_linear_532_562" x1="60.3675" y1="66.9105" x2="69.5148" y2="66.2715" gradientUnits="userSpaceOnUse">
<stop stop-color="#B18C49"/>
<stop offset="0.47" stop-color="#FFE4CE"/>
<stop offset="1" stop-color="#B18C49"/>
</linearGradient>
<linearGradient id="paint5_linear_532_562" x1="60.3675" y1="20.1424" x2="69.5148" y2="19.5035" gradientUnits="userSpaceOnUse">
<stop stop-color="#B18C49"/>
<stop offset="0.47" stop-color="#FFE4CE"/>
<stop offset="1" stop-color="#B18C49"/>
</linearGradient>
<linearGradient id="paint6_linear_532_562" x1="9.03049" y1="66.9105" x2="18.1767" y2="66.2717" gradientUnits="userSpaceOnUse">
<stop stop-color="#B18C49"/>
<stop offset="0.47" stop-color="#FFE4CE"/>
<stop offset="1" stop-color="#B18C49"/>
</linearGradient>
<linearGradient id="paint7_linear_532_562" x1="7.30949" y1="55.8851" x2="74.1505" y2="48.2148" gradientUnits="userSpaceOnUse">
<stop stop-color="#B18C49"/>
<stop offset="0.47" stop-color="#FFE4CE"/>
<stop offset="1" stop-color="#B18C49"/>
</linearGradient>
<linearGradient id="paint8_linear_532_562" x1="26.6" y1="49.8541" x2="52.9718" y2="48.0124" gradientUnits="userSpaceOnUse">
<stop stop-color="#B18C49"/>
<stop offset="0.47" stop-color="#FFE4CE"/>
<stop offset="1" stop-color="#B18C49"/>
</linearGradient>
<linearGradient id="paint9_linear_532_562" x1="33.4885" y1="43.8242" x2="45.2093" y2="43.0055" gradientUnits="userSpaceOnUse">
<stop stop-color="#B18C49"/>
<stop offset="0.47" stop-color="#FFE4CE"/>
<stop offset="1" stop-color="#B18C49"/>
</linearGradient>
</defs>
</svg>
